<?xml version="1.0" encoding="utf-8"?>
<svg xmlns="http://www.w3.org/2000/svg" xmlns:xlink="http://www.w3.org/1999/xlink" xml:space="preserve" width="882" height="882" viewBox="0 0 882 882"><g transform="scale(36.75)" fill="#000000"><path class="cls-1" d="M12,1A11,11,0,1,1,1,12,11,11,0,0,1,12,1m0-1A12,12,0,1,0,24,12,12,12,0,0,0,12,0Z"/></g><g fill="#000000">
<g transform="translate(453,189) scale(4.12)"><rect width="6" height="6"/></g>
<g transform="translate(477,189) scale(4.12)"><rect width="6" height="6"/></g>
<g transform="translate(405,213) scale(4.12)"><rect width="6" height="6"/></g>
<g transform="translate(429,213) scale(4.12)"><rect width="6" height="6"/></g>
<g transform="translate(453,213) scale(4.12)"><rect width="6" height="6"/></g>
<g transform="translate(477,213) scale(4.12)"><rect width="6" height="6"/></g>
<g transform="translate(381,237) scale(4.12)"><rect width="6" height="6"/></g>
<g transform="translate(405,237) scale(4.12)"><rect width="6" height="6"/></g>
<g transform="translate(453,237) scale(4.12)"><rect width="6" height="6"/></g>
<g transform="translate(381,261) scale(4.12)"><rect width="6" height="6"/></g>
<g transform="translate(405,261) scale(4.12)"><rect width="6" height="6"/></g>
<g transform="translate(477,261) scale(4.12)"><rect width="6" height="6"/></g>
<g transform="translate(381,285) scale(4.12)"><rect width="6" height="6"/></g>
<g transform="translate(405,285) scale(4.12)"><rect width="6" height="6"/></g>
<g transform="translate(453,285) scale(4.12)"><rect width="6" height="6"/></g>
<g transform="translate(477,285) scale(4.12)"><rect width="6" height="6"/></g>
<g transform="translate(381,309) scale(4.12)"><rect width="6" height="6"/></g>
<g transform="translate(429,309) scale(4.12)"><rect width="6" height="6"/></g>
<g transform="translate(477,309) scale(4.12)"><rect width="6" height="6"/></g>
<g transform="translate(381,333) scale(4.12)"><rect width="6" height="6"/></g>
<g transform="translate(429,333) scale(4.12)"><rect width="6" height="6"/></g>
<g transform="translate(477,333) scale(4.12)"><rect width="6" height="6"/></g>
<g transform="translate(381,357) scale(4.12)"><rect width="6" height="6"/></g>
<g transform="translate(429,357) scale(4.12)"><rect width="6" height="6"/></g>
<g transform="translate(453,357) scale(4.12)"><rect width="6" height="6"/></g>
<g transform="translate(477,357) scale(4.12)"><rect width="6" height="6"/></g>
<g transform="translate(189,381) scale(4.12)"><rect width="6" height="6"/></g>
<g transform="translate(237,381) scale(4.12)"><rect width="6" height="6"/></g>
<g transform="translate(261,381) scale(4.12)"><rect width="6" height="6"/></g>
<g transform="translate(285,381) scale(4.12)"><rect width="6" height="6"/></g>
<g transform="translate(309,381) scale(4.12)"><rect width="6" height="6"/></g>
<g transform="translate(333,381) scale(4.12)"><rect width="6" height="6"/></g>
<g transform="translate(405,381) scale(4.12)"><rect width="6" height="6"/></g>
<g transform="translate(429,381) scale(4.12)"><rect width="6" height="6"/></g>
<g transform="translate(477,381) scale(4.12)"><rect width="6" height="6"/></g>
<g transform="translate(525,381) scale(4.12)"><rect width="6" height="6"/></g>
<g transform="translate(549,381) scale(4.12)"><rect width="6" height="6"/></g>
<g transform="translate(573,381) scale(4.12)"><rect width="6" height="6"/></g>
<g transform="translate(597,381) scale(4.12)"><rect width="6" height="6"/></g>
<g transform="translate(621,381) scale(4.12)"><rect width="6" height="6"/></g>
<g transform="translate(189,405) scale(4.12)"><rect width="6" height="6"/></g>
<g transform="translate(237,405) scale(4.12)"><rect width="6" height="6"/></g>
<g transform="translate(261,405) scale(4.12)"><rect width="6" height="6"/></g>
<g transform="translate(285,405) scale(4.12)"><rect width="6" height="6"/></g>
<g transform="translate(381,405) scale(4.12)"><rect width="6" height="6"/></g>
<g transform="translate(477,405) scale(4.12)"><rect width="6" height="6"/></g>
<g transform="translate(549,405) scale(4.12)"><rect width="6" height="6"/></g>
<g transform="translate(597,405) scale(4.12)"><rect width="6" height="6"/></g>
<g transform="translate(621,405) scale(4.12)"><rect width="6" height="6"/></g>
<g transform="translate(189,429) scale(4.12)"><rect width="6" height="6"/></g>
<g transform="translate(261,429) scale(4.12)"><rect width="6" height="6"/></g>
<g transform="translate(285,429) scale(4.12)"><rect width="6" height="6"/></g>
<g transform="translate(333,429) scale(4.12)"><rect width="6" height="6"/></g>
<g transform="translate(357,429) scale(4.12)"><rect width="6" height="6"/></g>
<g transform="translate(453,429) scale(4.12)"><rect width="6" height="6"/></g>
<g transform="translate(501,429) scale(4.12)"><rect width="6" height="6"/></g>
<g transform="translate(573,429) scale(4.12)"><rect width="6" height="6"/></g>
<g transform="translate(597,429) scale(4.12)"><rect width="6" height="6"/></g>
<g transform="translate(621,429) scale(4.12)"><rect width="6" height="6"/></g>
<g transform="translate(645,429) scale(4.12)"><rect width="6" height="6"/></g>
<g transform="translate(237,453) scale(4.12)"><rect width="6" height="6"/></g>
<g transform="translate(261,453) scale(4.12)"><rect width="6" height="6"/></g>
<g transform="translate(357,453) scale(4.12)"><rect width="6" height="6"/></g>
<g transform="translate(429,453) scale(4.12)"><rect width="6" height="6"/></g>
<g transform="translate(549,453) scale(4.12)"><rect width="6" height="6"/></g>
<g transform="translate(573,453) scale(4.12)"><rect width="6" height="6"/></g>
<g transform="translate(597,453) scale(4.12)"><rect width="6" height="6"/></g>
<g transform="translate(621,453) scale(4.12)"><rect width="6" height="6"/></g>
<g transform="translate(189,477) scale(4.12)"><rect width="6" height="6"/></g>
<g transform="translate(213,477) scale(4.12)"><rect width="6" height="6"/></g>
<g transform="translate(237,477) scale(4.12)"><rect width="6" height="6"/></g>
<g transform="translate(285,477) scale(4.12)"><rect width="6" height="6"/></g>
<g transform="translate(333,477) scale(4.12)"><rect width="6" height="6"/></g>
<g transform="translate(357,477) scale(4.12)"><rect width="6" height="6"/></g>
<g transform="translate(405,477) scale(4.12)"><rect width="6" height="6"/></g>
<g transform="translate(429,477) scale(4.12)"><rect width="6" height="6"/></g>
<g transform="translate(453,477) scale(4.12)"><rect width="6" height="6"/></g>
<g transform="translate(501,477) scale(4.12)"><rect width="6" height="6"/></g>
<g transform="translate(573,477) scale(4.12)"><rect width="6" height="6"/></g>
<g transform="translate(597,477) scale(4.12)"><rect width="6" height="6"/></g>
<g transform="translate(621,477) scale(4.12)"><rect width="6" height="6"/></g>
<g transform="translate(645,477) scale(4.12)"><rect width="6" height="6"/></g>
<g transform="translate(381,501) scale(4.12)"><rect width="6" height="6"/></g>
<g transform="translate(405,501) scale(4.12)"><rect width="6" height="6"/></g>
<g transform="translate(453,501) scale(4.12)"><rect width="6" height="6"/></g>
<g transform="translate(477,501) scale(4.12)"><rect width="6" height="6"/></g>
<g transform="translate(501,501) scale(4.12)"><rect width="6" height="6"/></g>
<g transform="translate(525,501) scale(4.12)"><rect width="6" height="6"/></g>
<g transform="translate(621,501) scale(4.12)"><rect width="6" height="6"/></g>
<g transform="translate(645,501) scale(4.12)"><rect width="6" height="6"/></g>
<g transform="translate(477,525) scale(4.12)"><rect width="6" height="6"/></g>
<g transform="translate(525,525) scale(4.12)"><rect width="6" height="6"/></g>
<g transform="translate(549,525) scale(4.12)"><rect width="6" height="6"/></g>
<g transform="translate(597,525) scale(4.12)"><rect width="6" height="6"/></g>
<g transform="translate(645,525) scale(4.12)"><rect width="6" height="6"/></g>
<g transform="translate(381,549) scale(4.12)"><rect width="6" height="6"/></g>
<g transform="translate(405,549) scale(4.12)"><rect width="6" height="6"/></g>
<g transform="translate(453,549) scale(4.12)"><rect width="6" height="6"/></g>
<g transform="translate(477,549) scale(4.12)"><rect width="6" height="6"/></g>
<g transform="translate(501,549) scale(4.12)"><rect width="6" height="6"/></g>
<g transform="translate(525,549) scale(4.12)"><rect width="6" height="6"/></g>
<g transform="translate(597,549) scale(4.12)"><rect width="6" height="6"/></g>
<g transform="translate(621,549) scale(4.12)"><rect width="6" height="6"/></g>
<g transform="translate(381,573) scale(4.12)"><rect width="6" height="6"/></g>
<g transform="translate(405,573) scale(4.12)"><rect width="6" height="6"/></g>
<g transform="translate(477,573) scale(4.12)"><rect width="6" height="6"/></g>
<g transform="translate(549,573) scale(4.12)"><rect width="6" height="6"/></g>
<g transform="translate(597,573) scale(4.12)"><rect width="6" height="6"/></g>
<g transform="translate(621,573) scale(4.12)"><rect width="6" height="6"/></g>
<g transform="translate(645,573) scale(4.12)"><rect width="6" height="6"/></g>
<g transform="translate(381,597) scale(4.12)"><rect width="6" height="6"/></g>
<g transform="translate(477,597) scale(4.12)"><rect width="6" height="6"/></g>
<g transform="translate(549,597) scale(4.12)"><rect width="6" height="6"/></g>
<g transform="translate(597,597) scale(4.12)"><rect width="6" height="6"/></g>
<g transform="translate(621,597) scale(4.12)"><rect width="6" height="6"/></g>
<g transform="translate(381,621) scale(4.12)"><rect width="6" height="6"/></g>
<g transform="translate(405,621) scale(4.12)"><rect width="6" height="6"/></g>
<g transform="translate(429,621) scale(4.12)"><rect width="6" height="6"/></g>
<g transform="translate(453,621) scale(4.12)"><rect width="6" height="6"/></g>
<g transform="translate(501,621) scale(4.12)"><rect width="6" height="6"/></g>
<g transform="translate(573,621) scale(4.12)"><rect width="6" height="6"/></g>
<g transform="translate(621,621) scale(4.12)"><rect width="6" height="6"/></g>
<g transform="translate(405,645) scale(4.12)"><rect width="6" height="6"/></g>
<g transform="translate(429,645) scale(4.12)"><rect width="6" height="6"/></g>
<g transform="translate(549,645) scale(4.12)"><rect width="6" height="6"/></g>
<g transform="translate(573,645) scale(4.12)"><rect width="6" height="6"/></g>
<g transform="translate(621,645) scale(4.12)"><rect width="6" height="6"/></g>
<g transform="translate(381,669) scale(4.12)"><rect width="6" height="6"/></g>
<g transform="translate(453,669) scale(4.12)"><rect width="6" height="6"/></g>
<g transform="translate(501,669) scale(4.12)"><rect width="6" height="6"/></g>
<g transform="translate(573,669) scale(4.12)"><rect width="6" height="6"/></g>
<g transform="translate(621,669) scale(4.12)"><rect width="6" height="6"/></g>
<g transform="translate(645,669) scale(4.12)"><rect width="6" height="6"/></g>
<g transform="translate(189,189)"><g transform="scale(12)"><path d="M0,0v14h14V0H0z M12,12H2V2h10V12z"/></g></g>
<g transform="translate(525,189)"><g transform="scale(12)"><path d="M0,0v14h14V0H0z M12,12H2V2h10V12z"/></g></g>
<g transform="translate(189,525)"><g transform="scale(12)"><path d="M0,0v14h14V0H0z M12,12H2V2h10V12z"/></g></g>
<g transform="translate(237,237)"><g transform="scale(12)"><rect width="6" height="6"/></g></g>
<g transform="translate(573,237)"><g transform="scale(12)"><rect width="6" height="6"/></g></g>
<g transform="translate(237,573)"><g transform="scale(12)"><rect width="6" height="6"/></g></g>
</g></svg>
